<!DOCTYPE svg PUBLIC "-//W3C//DTD SVG 1.1//EN" "http://www.w3.org/Graphics/SVG/1.1/DTD/svg11.dtd">
<!-- Uploaded to: SVG Repo, www.svgrepo.com, Transformed by: SVG Repo Mixer Tools -->
<svg fill="#ffffff" height="800px" width="800px" version="1.1" id="Layer_1" xmlns="http://www.w3.org/2000/svg" xmlns:xlink="http://www.w3.org/1999/xlink" viewBox="0 0 512 512" xml:space="preserve" stroke="#ffffff">
<g id="SVGRepo_bgCarrier" stroke-width="0"/>
<g id="SVGRepo_tracerCarrier" stroke-linecap="round" stroke-linejoin="round"/>
<g id="SVGRepo_iconCarrier"> <g> <g> <g> <path d="M195.468,357.783c4.472,0,8.096-3.625,8.096-8.096s-3.624-8.096-8.096-8.096c-98.852,0-179.276-80.422-179.276-179.275 c0-4.471-3.625-8.096-8.096-8.096c-4.472,0-8.096,3.625-8.096,8.096c0,52.252,20.32,101.348,57.22,138.247 C94.118,337.461,143.216,357.783,195.468,357.783z"/> <path d="M454.78,211.439c-36.898-36.899-85.997-57.22-138.248-57.22c-4.472,0-8.096,3.625-8.096,8.096s3.624,8.096,8.096,8.096 c98.852,0,179.276,80.422,179.276,179.275c0,4.471,3.624,8.096,8.096,8.096c4.471,0,8.096-3.625,8.096-8.096 C512,297.435,491.68,248.337,454.78,211.439z"/> <path d="M285.169,359.323c-3.161-3.162-8.286-3.162-11.45,0c-69.899,69.899-183.637,69.898-253.534,0 c-3.162-3.162-8.287-3.162-11.45,0c-3.162,3.161-3.162,8.287,0,11.449c36.949,36.948,86.034,57.296,138.217,57.296 s101.268-20.347,138.216-57.296C288.331,367.611,288.33,362.485,285.169,359.323z"/> <path d="M226.832,152.676c1.581,1.581,3.653,2.372,5.726,2.372c2.072,0,4.143-0.79,5.726-2.372 c69.899-69.897,183.635-69.898,253.532,0c3.162,3.162,8.287,3.162,11.45,0c3.162-3.161,3.162-8.287,0-11.449 c-36.948-36.948-86.033-57.296-138.216-57.296s-101.269,20.348-138.217,57.296C223.67,144.388,223.67,149.514,226.832,152.676z"/> <path d="M349.686,308.435c-4.471,0-8.096,3.625-8.096,8.096c-0.001,98.852-80.424,179.275-179.277,179.275 c-4.472,0-8.096,3.625-8.096,8.096s3.624,8.096,8.096,8.096c52.253,0,101.349-20.32,138.247-57.22 c36.9-36.898,57.221-85.996,57.222-138.247C357.783,312.06,354.159,308.435,349.686,308.435z"/> <path d="M162.314,203.565c4.471,0,8.096-3.625,8.097-8.096c0.001-47.927,18.637-92.959,52.478-126.799 c33.84-33.841,78.871-52.477,126.798-52.475c4.471,0,8.096-3.625,8.096-8.096s-3.624-8.096-8.096-8.096c-0.003,0-0.002,0-0.006,0 c-52.248,0-101.345,20.32-138.242,57.217c-36.899,36.899-57.221,85.997-57.222,138.25 C154.217,199.94,157.841,203.565,162.314,203.565z"/> <path d="M359.323,226.833c-3.162,3.161-3.162,8.287,0,11.449c69.898,69.899,69.897,183.635-0.002,253.534 c-3.162,3.161-3.162,8.287,0,11.449c1.581,1.581,3.654,2.372,5.726,2.372s4.144-0.791,5.726-2.371 c36.947-36.948,57.295-86.034,57.295-138.217c0.001-52.182-20.346-101.268-57.293-138.216 C367.612,223.671,362.486,223.671,359.323,226.833z"/> <path d="M146.953,287.541c2.072,0,4.144-0.791,5.725-2.372c3.162-3.161,3.162-8.287,0-11.449 c-69.899-69.9-69.899-183.637,0-253.536c3.162-3.162,3.162-8.288,0-11.45c-3.162-3.162-8.287-3.162-11.45,0 c-36.947,36.948-57.295,86.034-57.295,138.217c0,52.183,20.347,101.269,57.295,138.218 C142.809,286.751,144.881,287.541,146.953,287.541z"/> <path d="M303.005,278.645c4.278,1.288,8.798-1.136,10.088-5.416c1.679-5.567,2.529-11.364,2.529-17.229 c0-32.876-26.747-59.623-59.623-59.623c-32.876,0-59.622,26.747-59.622,59.623s26.747,59.624,59.622,59.624 c15.596,0,30.347-5.981,41.531-16.845c3.207-3.114,3.284-8.24,0.168-11.448c-3.113-3.207-8.239-3.284-11.448-0.168 c-8.148,7.912-18.892,12.27-30.253,12.27c-23.947,0-43.43-19.483-43.43-43.431c0-23.947,19.483-43.43,43.43-43.43 s43.43,19.483,43.43,43.43c0,4.281-0.619,8.505-1.839,12.556C296.299,272.839,298.724,277.355,303.005,278.645z"/> </g> </g> </g> </g>
</svg>